<?xml version="1.0" encoding="UTF-8" standalone="no"?>
<!DOCTYPE svg PUBLIC "-//W3C//DTD SVG 1.1//EN"
 "http://www.w3.org/Graphics/SVG/1.1/DTD/svg11.dtd">
<!-- Generated by graphviz version 2.38.0 (20140413.2041)
 -->
<!-- Title: sarien Pages: 1 -->
<svg width="525pt" height="999pt"
 viewBox="0.00 0.00 525.00 999.00" xmlns="http://www.w3.org/2000/svg" xmlns:xlink="http://www.w3.org/1999/xlink">
<g id="graph0" class="graph" transform="scale(1 1) rotate(0) translate(4 995)">
<title>sarien</title>
<polygon fill="white" stroke="none" points="-4,4 -4,-995 521,-995 521,4 -4,4"/>
<!-- node_1 -->
<g id="node1" class="node"><title>node_1</title>
<polygon fill="none" stroke="black" points="155,-710.5 0,-710.5 0,-669.5 155,-669.5 155,-710.5"/>
<text text-anchor="middle" x="77.5" y="-698.5" font-family="Helvetica,sans-Serif" font-size="10.00">on_drawingarea1_expose_event</text>
<text text-anchor="middle" x="77.5" y="-687.5" font-family="Helvetica,sans-Serif" font-size="10.00"> gboolean ()</text>
<text text-anchor="middle" x="77.5" y="-676.5" font-family="Helvetica,sans-Serif" font-size="10.00">callbacks.c</text>
</g>
<!-- node_2 -->
<g id="node2" class="node"><title>node_2</title>
<polygon fill="none" stroke="black" points="338,-939.5 191,-939.5 191,-898.5 338,-898.5 338,-939.5"/>
<text text-anchor="middle" x="264.5" y="-927.5" font-family="Helvetica,sans-Serif" font-size="10.00">pari_PerformImageAcquisition</text>
<text text-anchor="middle" x="264.5" y="-916.5" font-family="Helvetica,sans-Serif" font-size="10.00"> void ()</text>
<text text-anchor="middle" x="264.5" y="-905.5" font-family="Helvetica,sans-Serif" font-size="10.00">myf.c</text>
</g>
<!-- node_1&#45;&gt;node_2 -->
<g id="edge1" class="edge"><title>node_1&#45;&gt;node_2</title>
<path fill="none" stroke="black" d="M95.2438,-710.726C128.471,-751.856 202.784,-843.843 240.539,-890.578"/>
<polygon fill="black" stroke="black" points="237.921,-892.906 246.927,-898.486 243.366,-888.507 237.921,-892.906"/>
</g>
<!-- node_5 -->
<g id="node5" class="node"><title>node_5</title>
<polygon fill="none" stroke="black" points="335,-710.5 194,-710.5 194,-669.5 335,-669.5 335,-710.5"/>
<text text-anchor="middle" x="264.5" y="-698.5" font-family="Helvetica,sans-Serif" font-size="10.00">pari_ProcessUserOperations</text>
<text text-anchor="middle" x="264.5" y="-687.5" font-family="Helvetica,sans-Serif" font-size="10.00"> void ()</text>
<text text-anchor="middle" x="264.5" y="-676.5" font-family="Helvetica,sans-Serif" font-size="10.00">myf.c</text>
</g>
<!-- node_1&#45;&gt;node_5 -->
<g id="edge4" class="edge"><title>node_1&#45;&gt;node_5</title>
<path fill="none" stroke="black" d="M155.082,-690C164.499,-690 174.143,-690 183.607,-690"/>
<polygon fill="black" stroke="black" points="183.788,-693.5 193.788,-690 183.787,-686.5 183.788,-693.5"/>
</g>
<!-- node_13 -->
<g id="node13" class="node"><title>node_13</title>
<polygon fill="none" stroke="black" points="327.5,-281.5 201.5,-281.5 201.5,-240.5 327.5,-240.5 327.5,-281.5"/>
<text text-anchor="middle" x="264.5" y="-269.5" font-family="Helvetica,sans-Serif" font-size="10.00">pari_RefreshDrawingArea</text>
<text text-anchor="middle" x="264.5" y="-258.5" font-family="Helvetica,sans-Serif" font-size="10.00"> void ()</text>
<text text-anchor="middle" x="264.5" y="-247.5" font-family="Helvetica,sans-Serif" font-size="10.00">myf.c</text>
</g>
<!-- node_1&#45;&gt;node_13 -->
<g id="edge12" class="edge"><title>node_1&#45;&gt;node_13</title>
<path fill="none" stroke="black" d="M87.4229,-669.308C117.489,-599.587 215.186,-373.035 250.562,-291.002"/>
<polygon fill="black" stroke="black" points="253.813,-292.303 254.559,-281.735 247.385,-289.531 253.813,-292.303"/>
</g>
<!-- node_3 -->
<g id="node3" class="node"><title>node_3</title>
<polygon fill="none" stroke="black" points="486,-991 405,-991 405,-955 486,-955 486,-991"/>
<text text-anchor="middle" x="445.5" y="-970.5" font-family="Helvetica,sans-Serif" font-size="10.00">cvQueryFrame</text>
</g>
<!-- node_2&#45;&gt;node_3 -->
<g id="edge2" class="edge"><title>node_2&#45;&gt;node_3</title>
<path fill="none" stroke="black" d="M333.683,-939.569C354.127,-945.737 376.148,-952.38 395.13,-958.106"/>
<polygon fill="black" stroke="black" points="394.171,-961.473 404.756,-961.01 396.193,-954.771 394.171,-961.473"/>
</g>
<!-- node_4 -->
<g id="node4" class="node"><title>node_4</title>
<polygon fill="none" stroke="black" points="472.5,-937 418.5,-937 418.5,-901 472.5,-901 472.5,-937"/>
<text text-anchor="middle" x="445.5" y="-916.5" font-family="Helvetica,sans-Serif" font-size="10.00">cvCopy</text>
</g>
<!-- node_2&#45;&gt;node_4 -->
<g id="edge3" class="edge"><title>node_2&#45;&gt;node_4</title>
<path fill="none" stroke="black" d="M338.048,-919C362.035,-919 387.708,-919 407.831,-919"/>
<polygon fill="black" stroke="black" points="408.102,-922.5 418.101,-919 408.101,-915.5 408.102,-922.5"/>
</g>
<!-- node_6 -->
<g id="node6" class="node"><title>node_6</title>
<polygon fill="none" stroke="black" points="472.5,-883 418.5,-883 418.5,-847 472.5,-847 472.5,-883"/>
<text text-anchor="middle" x="445.5" y="-862.5" font-family="Helvetica,sans-Serif" font-size="10.00">cvCopy</text>
</g>
<!-- node_5&#45;&gt;node_6 -->
<g id="edge5" class="edge"><title>node_5&#45;&gt;node_6</title>
<path fill="none" stroke="black" d="M275.631,-710.61C292.126,-742.197 327.656,-802.624 374,-838 384.174,-845.766 396.845,-851.536 408.627,-855.703"/>
<polygon fill="black" stroke="black" points="407.649,-859.065 418.241,-858.834 409.817,-852.409 407.649,-859.065"/>
</g>
<!-- node_7 -->
<g id="node7" class="node"><title>node_7</title>
<polygon fill="none" stroke="black" points="498,-828.5 393,-828.5 393,-787.5 498,-787.5 498,-828.5"/>
<text text-anchor="middle" x="445.5" y="-816.5" font-family="Helvetica,sans-Serif" font-size="10.00">pari_UserOperation1</text>
<text text-anchor="middle" x="445.5" y="-805.5" font-family="Helvetica,sans-Serif" font-size="10.00"> void ()</text>
<text text-anchor="middle" x="445.5" y="-794.5" font-family="Helvetica,sans-Serif" font-size="10.00">myf.c</text>
</g>
<!-- node_5&#45;&gt;node_7 -->
<g id="edge6" class="edge"><title>node_5&#45;&gt;node_7</title>
<path fill="none" stroke="black" d="M286.897,-710.833C307.796,-730.351 341.165,-759.38 374,-779 377.138,-780.875 380.42,-782.684 383.779,-784.418"/>
<polygon fill="black" stroke="black" points="382.278,-787.58 392.799,-788.828 385.353,-781.291 382.278,-787.58"/>
</g>
<!-- node_8 -->
<g id="node8" class="node"><title>node_8</title>
<polygon fill="none" stroke="black" points="498,-769.5 393,-769.5 393,-728.5 498,-728.5 498,-769.5"/>
<text text-anchor="middle" x="445.5" y="-757.5" font-family="Helvetica,sans-Serif" font-size="10.00">pari_UserOperation2</text>
<text text-anchor="middle" x="445.5" y="-746.5" font-family="Helvetica,sans-Serif" font-size="10.00"> void ()</text>
<text text-anchor="middle" x="445.5" y="-735.5" font-family="Helvetica,sans-Serif" font-size="10.00">myf.c</text>
</g>
<!-- node_5&#45;&gt;node_8 -->
<g id="edge7" class="edge"><title>node_5&#45;&gt;node_8</title>
<path fill="none" stroke="black" d="M327.854,-710.553C345.732,-716.445 365.206,-722.864 383.03,-728.739"/>
<polygon fill="black" stroke="black" points="382.149,-732.134 392.742,-731.94 384.34,-725.485 382.149,-732.134"/>
</g>
<!-- node_9 -->
<g id="node9" class="node"><title>node_9</title>
<polygon fill="none" stroke="black" points="498,-710.5 393,-710.5 393,-669.5 498,-669.5 498,-710.5"/>
<text text-anchor="middle" x="445.5" y="-698.5" font-family="Helvetica,sans-Serif" font-size="10.00">pari_UserOperation3</text>
<text text-anchor="middle" x="445.5" y="-687.5" font-family="Helvetica,sans-Serif" font-size="10.00"> void ()</text>
<text text-anchor="middle" x="445.5" y="-676.5" font-family="Helvetica,sans-Serif" font-size="10.00">myf.c</text>
</g>
<!-- node_5&#45;&gt;node_9 -->
<g id="edge8" class="edge"><title>node_5&#45;&gt;node_9</title>
<path fill="none" stroke="black" d="M335.219,-690C350.851,-690 367.332,-690 382.62,-690"/>
<polygon fill="black" stroke="black" points="382.988,-693.5 392.988,-690 382.988,-686.5 382.988,-693.5"/>
</g>
<!-- node_10 -->
<g id="node10" class="node"><title>node_10</title>
<polygon fill="none" stroke="black" points="498,-651.5 393,-651.5 393,-610.5 498,-610.5 498,-651.5"/>
<text text-anchor="middle" x="445.5" y="-639.5" font-family="Helvetica,sans-Serif" font-size="10.00">pari_UserOperation4</text>
<text text-anchor="middle" x="445.5" y="-628.5" font-family="Helvetica,sans-Serif" font-size="10.00"> void ()</text>
<text text-anchor="middle" x="445.5" y="-617.5" font-family="Helvetica,sans-Serif" font-size="10.00">myf.c</text>
</g>
<!-- node_5&#45;&gt;node_10 -->
<g id="edge9" class="edge"><title>node_5&#45;&gt;node_10</title>
<path fill="none" stroke="black" d="M327.854,-669.447C345.732,-663.555 365.206,-657.136 383.03,-651.261"/>
<polygon fill="black" stroke="black" points="384.34,-654.515 392.742,-648.06 382.149,-647.866 384.34,-654.515"/>
</g>
<!-- node_11 -->
<g id="node11" class="node"><title>node_11</title>
<polygon fill="none" stroke="black" points="498,-592.5 393,-592.5 393,-551.5 498,-551.5 498,-592.5"/>
<text text-anchor="middle" x="445.5" y="-580.5" font-family="Helvetica,sans-Serif" font-size="10.00">pari_UserOperation5</text>
<text text-anchor="middle" x="445.5" y="-569.5" font-family="Helvetica,sans-Serif" font-size="10.00"> void ()</text>
<text text-anchor="middle" x="445.5" y="-558.5" font-family="Helvetica,sans-Serif" font-size="10.00">myf.c</text>
</g>
<!-- node_5&#45;&gt;node_11 -->
<g id="edge10" class="edge"><title>node_5&#45;&gt;node_11</title>
<path fill="none" stroke="black" d="M287.395,-669.14C308.385,-649.923 341.585,-621.514 374,-602 377.148,-600.105 380.438,-598.269 383.802,-596.503"/>
<polygon fill="black" stroke="black" points="385.45,-599.592 392.834,-591.994 382.323,-593.329 385.45,-599.592"/>
</g>
<!-- node_12 -->
<g id="node12" class="node"><title>node_12</title>
<polygon fill="none" stroke="black" points="498,-533.5 393,-533.5 393,-492.5 498,-492.5 498,-533.5"/>
<text text-anchor="middle" x="445.5" y="-521.5" font-family="Helvetica,sans-Serif" font-size="10.00">pari_UserOperation6</text>
<text text-anchor="middle" x="445.5" y="-510.5" font-family="Helvetica,sans-Serif" font-size="10.00"> void ()</text>
<text text-anchor="middle" x="445.5" y="-499.5" font-family="Helvetica,sans-Serif" font-size="10.00">myf.c</text>
</g>
<!-- node_5&#45;&gt;node_12 -->
<g id="edge11" class="edge"><title>node_5&#45;&gt;node_12</title>
<path fill="none" stroke="black" d="M275.963,-669.48C292.776,-638.314 328.577,-578.886 374,-543 377.139,-540.52 380.514,-538.208 384.026,-536.06"/>
<polygon fill="black" stroke="black" points="385.96,-538.988 392.981,-531.053 382.544,-532.878 385.96,-538.988"/>
</g>
<!-- node_15 -->
<g id="node14" class="node"><title>node_15</title>
<polygon fill="none" stroke="black" points="502.5,-474 388.5,-474 388.5,-438 502.5,-438 502.5,-474"/>
<text text-anchor="middle" x="445.5" y="-453.5" font-family="Helvetica,sans-Serif" font-size="10.00">gtk_builder_get_object</text>
</g>
<!-- node_13&#45;&gt;node_15 -->
<g id="edge13" class="edge"><title>node_13&#45;&gt;node_15</title>
<path fill="none" stroke="black" d="M273.669,-281.559C288.555,-316.55 323.308,-387.877 374,-429 375.778,-430.442 377.642,-431.814 379.571,-433.117"/>
<polygon fill="black" stroke="black" points="378.012,-436.263 388.389,-438.403 381.612,-430.259 378.012,-436.263"/>
</g>
<!-- node_17 -->
<g id="node15" class="node"><title>node_17</title>
<polygon fill="none" stroke="black" points="509.5,-419.5 381.5,-419.5 381.5,-378.5 509.5,-378.5 509.5,-419.5"/>
<text text-anchor="middle" x="445.5" y="-407.5" font-family="Helvetica,sans-Serif" font-size="10.00">pari_ConvertOpenCv2Gtk</text>
<text text-anchor="middle" x="445.5" y="-396.5" font-family="Helvetica,sans-Serif" font-size="10.00"> GdkPixbuf * ()</text>
<text text-anchor="middle" x="445.5" y="-385.5" font-family="Helvetica,sans-Serif" font-size="10.00">myf.c</text>
</g>
<!-- node_13&#45;&gt;node_17 -->
<g id="edge14" class="edge"><title>node_13&#45;&gt;node_17</title>
<path fill="none" stroke="black" d="M282.019,-281.67C301.811,-305.34 336.965,-344.058 374,-369 376.379,-370.602 378.857,-372.147 381.401,-373.634"/>
<polygon fill="black" stroke="black" points="379.8,-376.747 390.256,-378.458 383.149,-370.6 379.8,-376.747"/>
</g>
<!-- node_18 -->
<g id="node16" class="node"><title>node_18</title>
<polygon fill="none" stroke="black" points="491,-360 400,-360 400,-324 491,-324 491,-360"/>
<text text-anchor="middle" x="445.5" y="-339.5" font-family="Helvetica,sans-Serif" font-size="10.00">gdk_cairo_create</text>
</g>
<!-- node_13&#45;&gt;node_18 -->
<g id="edge15" class="edge"><title>node_13&#45;&gt;node_18</title>
<path fill="none" stroke="black" d="M304.495,-281.543C324.964,-292.036 350.593,-304.721 374,-315 379.305,-317.329 384.879,-319.659 390.472,-321.92"/>
<polygon fill="black" stroke="black" points="389.273,-325.21 399.859,-325.648 391.856,-318.704 389.273,-325.21"/>
</g>
<!-- node_19 -->
<g id="node17" class="node"><title>node_19</title>
<polygon fill="none" stroke="black" points="505,-306 386,-306 386,-270 505,-270 505,-306"/>
<text text-anchor="middle" x="445.5" y="-285.5" font-family="Helvetica,sans-Serif" font-size="10.00">gtk_widget_get_window</text>
</g>
<!-- node_13&#45;&gt;node_19 -->
<g id="edge16" class="edge"><title>node_13&#45;&gt;node_19</title>
<path fill="none" stroke="black" d="M327.603,-270.368C343.093,-272.704 359.794,-275.223 375.59,-277.606"/>
<polygon fill="black" stroke="black" points="375.408,-281.118 385.818,-279.149 376.452,-274.196 375.408,-281.118"/>
</g>
<!-- node_20 -->
<g id="node18" class="node"><title>node_20</title>
<polygon fill="none" stroke="black" points="517,-252 374,-252 374,-216 517,-216 517,-252"/>
<text text-anchor="middle" x="445.5" y="-231.5" font-family="Helvetica,sans-Serif" font-size="10.00">gdk_cairo_set_source_pixbuf</text>
</g>
<!-- node_13&#45;&gt;node_20 -->
<g id="edge17" class="edge"><title>node_13&#45;&gt;node_20</title>
<path fill="none" stroke="black" d="M327.603,-251.632C339.278,-249.871 351.642,-248.006 363.788,-246.174"/>
<polygon fill="black" stroke="black" points="364.553,-249.599 373.919,-244.646 363.509,-242.677 364.553,-249.599"/>
</g>
<!-- node_21 -->
<g id="node19" class="node"><title>node_21</title>
<polygon fill="none" stroke="black" points="477.5,-198 413.5,-198 413.5,-162 477.5,-162 477.5,-198"/>
<text text-anchor="middle" x="445.5" y="-177.5" font-family="Helvetica,sans-Serif" font-size="10.00">cairo_paint</text>
</g>
<!-- node_13&#45;&gt;node_21 -->
<g id="edge18" class="edge"><title>node_13&#45;&gt;node_21</title>
<path fill="none" stroke="black" d="M304.495,-240.457C324.964,-229.964 350.593,-217.279 374,-207 383.54,-202.811 393.954,-198.619 403.779,-194.831"/>
<polygon fill="black" stroke="black" points="405.249,-198.017 413.353,-191.193 402.762,-191.474 405.249,-198.017"/>
</g>
<!-- node_22 -->
<g id="node20" class="node"><title>node_22</title>
<polygon fill="none" stroke="black" points="472.5,-144 418.5,-144 418.5,-108 472.5,-108 472.5,-144"/>
<text text-anchor="middle" x="445.5" y="-123.5" font-family="Helvetica,sans-Serif" font-size="10.00">cairo_fill</text>
</g>
<!-- node_13&#45;&gt;node_22 -->
<g id="edge19" class="edge"><title>node_13&#45;&gt;node_22</title>
<path fill="none" stroke="black" d="M281.86,-240.089C301.502,-216.191 336.515,-177.261 374,-153 384.659,-146.101 397.347,-140.557 409.001,-136.331"/>
<polygon fill="black" stroke="black" points="410.151,-139.637 418.481,-133.089 407.886,-133.013 410.151,-139.637"/>
</g>
<!-- node_23 -->
<g id="node21" class="node"><title>node_23</title>
<polygon fill="none" stroke="black" points="483,-90 408,-90 408,-54 483,-54 483,-90"/>
<text text-anchor="middle" x="445.5" y="-69.5" font-family="Helvetica,sans-Serif" font-size="10.00">cairo_destroy</text>
</g>
<!-- node_13&#45;&gt;node_23 -->
<g id="edge20" class="edge"><title>node_13&#45;&gt;node_23</title>
<path fill="none" stroke="black" d="M274.235,-240.366C289.616,-206.351 324.643,-138.362 374,-99 381.224,-93.2389 389.816,-88.6032 398.475,-84.91"/>
<polygon fill="black" stroke="black" points="399.787,-88.155 407.835,-81.2637 397.246,-81.6324 399.787,-88.155"/>
</g>
<!-- node_24 -->
<g id="node22" class="node"><title>node_24</title>
<polygon fill="none" stroke="black" points="485.5,-36 405.5,-36 405.5,-0 485.5,-0 485.5,-36"/>
<text text-anchor="middle" x="445.5" y="-15.5" font-family="Helvetica,sans-Serif" font-size="10.00">g_object_unref</text>
</g>
<!-- node_13&#45;&gt;node_24 -->
<g id="edge21" class="edge"><title>node_13&#45;&gt;node_24</title>
<path fill="none" stroke="black" d="M270.45,-240.386C281.652,-197.982 312.856,-100.33 374,-45 380.356,-39.2481 388.067,-34.6729 396.024,-31.0485"/>
<polygon fill="black" stroke="black" points="397.477,-34.2361 405.413,-27.2171 394.832,-27.755 397.477,-34.2361"/>
</g>
</g>
</svg>
