<?xml version="1.0" encoding="UTF-8" standalone="no"?>
<!DOCTYPE svg PUBLIC "-//W3C//DTD SVG 1.1//EN"
 "http://www.w3.org/Graphics/SVG/1.1/DTD/svg11.dtd">
<!-- Generated by graphviz version 2.38.0 (20140413.2041)
 -->
<!-- Title: sarien Pages: 1 -->
<svg width="238pt" height="638pt"
 viewBox="0.00 0.00 238.00 638.00" xmlns="http://www.w3.org/2000/svg" xmlns:xlink="http://www.w3.org/1999/xlink">
<g id="graph0" class="graph" transform="scale(1 1) rotate(0) translate(4 634)">
<title>sarien</title>
<polygon fill="white" stroke="none" points="-4,4 -4,-634 234,-634 234,4 -4,4"/>
<!-- node_1 -->
<g id="node1" class="node"><title>node_1</title>
<polygon fill="none" stroke="black" points="54,-335.5 0,-335.5 0,-294.5 54,-294.5 54,-335.5"/>
<text text-anchor="middle" x="27" y="-323.5" font-family="Helvetica,sans-Serif" font-size="10.00">main</text>
<text text-anchor="middle" x="27" y="-312.5" font-family="Helvetica,sans-Serif" font-size="10.00"> int ()</text>
<text text-anchor="middle" x="27" y="-301.5" font-family="Helvetica,sans-Serif" font-size="10.00">main.c</text>
</g>
<!-- node_2 -->
<g id="node2" class="node"><title>node_2</title>
<polygon fill="none" stroke="black" points="187,-630 133,-630 133,-594 187,-594 187,-630"/>
<text text-anchor="middle" x="160" y="-609.5" font-family="Helvetica,sans-Serif" font-size="10.00">gtk_init</text>
</g>
<!-- node_1&#45;&gt;node_2 -->
<g id="edge1" class="edge"><title>node_1&#45;&gt;node_2</title>
<path fill="none" stroke="black" d="M30.229,-335.516C36.7202,-391.811 57.2507,-547.034 90,-585 98.4678,-594.817 110.962,-601.089 123,-605.085"/>
<polygon fill="black" stroke="black" points="122.329,-608.534 132.907,-607.935 124.264,-601.807 122.329,-608.534"/>
</g>
<!-- node_3 -->
<g id="node3" class="node"><title>node_3</title>
<polygon fill="none" stroke="black" points="203,-576 117,-576 117,-540 203,-540 203,-576"/>
<text text-anchor="middle" x="160" y="-555.5" font-family="Helvetica,sans-Serif" font-size="10.00">gtk_builder_new</text>
</g>
<!-- node_1&#45;&gt;node_3 -->
<g id="edge2" class="edge"><title>node_1&#45;&gt;node_3</title>
<path fill="none" stroke="black" d="M28.1362,-335.717C29.5227,-377.883 38.514,-474.462 90,-531 94.9422,-536.427 101.109,-540.776 107.71,-544.259"/>
<polygon fill="black" stroke="black" points="106.358,-547.489 116.905,-548.489 109.284,-541.13 106.358,-547.489"/>
</g>
<!-- node_4 -->
<g id="node4" class="node"><title>node_4</title>
<polygon fill="none" stroke="black" points="224,-522 96,-522 96,-486 224,-486 224,-522"/>
<text text-anchor="middle" x="160" y="-501.5" font-family="Helvetica,sans-Serif" font-size="10.00">gtk_builder_add_from_file</text>
</g>
<!-- node_1&#45;&gt;node_4 -->
<g id="edge3" class="edge"><title>node_1&#45;&gt;node_4</title>
<path fill="none" stroke="black" d="M30.4795,-335.523C35.6119,-369.377 50.4351,-437.138 90,-477 90.943,-477.95 91.9234,-478.868 92.9365,-479.753"/>
<polygon fill="black" stroke="black" points="91.1547,-482.79 101.269,-485.945 95.33,-477.171 91.1547,-482.79"/>
</g>
<!-- node_5 -->
<g id="node5" class="node"><title>node_5</title>
<polygon fill="none" stroke="black" points="230,-468 90,-468 90,-432 230,-432 230,-468"/>
<text text-anchor="middle" x="160" y="-447.5" font-family="Helvetica,sans-Serif" font-size="10.00">gtk_builder_connect_signals</text>
</g>
<!-- node_1&#45;&gt;node_5 -->
<g id="edge4" class="edge"><title>node_1&#45;&gt;node_5</title>
<path fill="none" stroke="black" d="M35.0252,-335.677C44.1681,-359.72 62.3227,-399.147 90,-423 91.3398,-424.155 92.7348,-425.263 94.1751,-426.327"/>
<polygon fill="black" stroke="black" points="92.5555,-429.448 102.852,-431.946 96.3603,-423.573 92.5555,-429.448"/>
</g>
<!-- node_7 -->
<g id="node6" class="node"><title>node_7</title>
<polygon fill="none" stroke="black" points="217,-414 103,-414 103,-378 217,-378 217,-414"/>
<text text-anchor="middle" x="160" y="-393.5" font-family="Helvetica,sans-Serif" font-size="10.00">gtk_builder_get_object</text>
</g>
<!-- node_1&#45;&gt;node_7 -->
<g id="edge5" class="edge"><title>node_1&#45;&gt;node_7</title>
<path fill="none" stroke="black" d="M48.1019,-335.685C59.6004,-346.662 74.74,-359.754 90,-369 92.6112,-370.582 95.3312,-372.103 98.1176,-373.56"/>
<polygon fill="black" stroke="black" points="96.6688,-376.748 107.19,-377.996 99.7434,-370.459 96.6688,-376.748"/>
</g>
<!-- node_8 -->
<g id="node7" class="node"><title>node_8</title>
<polygon fill="none" stroke="black" points="206,-360 114,-360 114,-324 206,-324 206,-360"/>
<text text-anchor="middle" x="160" y="-339.5" font-family="Helvetica,sans-Serif" font-size="10.00">g_signal_connect</text>
</g>
<!-- node_1&#45;&gt;node_8 -->
<g id="edge6" class="edge"><title>node_1&#45;&gt;node_8</title>
<path fill="none" stroke="black" d="M54.195,-320.399C68.4259,-323.332 86.5849,-327.075 103.775,-330.618"/>
<polygon fill="black" stroke="black" points="103.247,-334.083 113.748,-332.673 104.661,-327.227 103.247,-334.083"/>
</g>
<!-- node_11 -->
<g id="node8" class="node"><title>node_11</title>
<polygon fill="none" stroke="black" points="187,-306 133,-306 133,-270 187,-270 187,-306"/>
<text text-anchor="middle" x="160" y="-285.5" font-family="Helvetica,sans-Serif" font-size="10.00">signal</text>
</g>
<!-- node_1&#45;&gt;node_11 -->
<g id="edge7" class="edge"><title>node_1&#45;&gt;node_11</title>
<path fill="none" stroke="black" d="M54.195,-309.601C73.9191,-305.536 101.189,-299.915 122.968,-295.426"/>
<polygon fill="black" stroke="black" points="123.763,-298.836 132.85,-293.39 122.35,-291.98 123.763,-298.836"/>
</g>
<!-- node_12 -->
<g id="node9" class="node"><title>node_12</title>
<polygon fill="none" stroke="black" points="200,-252 120,-252 120,-216 200,-216 200,-252"/>
<text text-anchor="middle" x="160" y="-231.5" font-family="Helvetica,sans-Serif" font-size="10.00">g_timeout_add</text>
</g>
<!-- node_1&#45;&gt;node_12 -->
<g id="edge8" class="edge"><title>node_1&#45;&gt;node_12</title>
<path fill="none" stroke="black" d="M48.1019,-294.315C59.6004,-283.338 74.74,-270.246 90,-261 96.3534,-257.15 103.352,-253.663 110.381,-250.572"/>
<polygon fill="black" stroke="black" points="112.036,-253.674 119.927,-246.604 109.349,-247.21 112.036,-253.674"/>
</g>
<!-- node_13 -->
<g id="node10" class="node"><title>node_13</title>
<polygon fill="none" stroke="black" points="227,-198 93,-198 93,-162 227,-162 227,-198"/>
<text text-anchor="middle" x="160" y="-177.5" font-family="Helvetica,sans-Serif" font-size="10.00">pari_StartImageAcquisition</text>
</g>
<!-- node_1&#45;&gt;node_13 -->
<g id="edge9" class="edge"><title>node_1&#45;&gt;node_13</title>
<path fill="none" stroke="black" d="M35.0252,-294.323C44.1681,-270.28 62.3227,-230.853 90,-207 91.3398,-205.845 92.7348,-204.737 94.1751,-203.673"/>
<polygon fill="black" stroke="black" points="96.3603,-206.427 102.852,-198.054 92.5555,-200.552 96.3603,-206.427"/>
</g>
<!-- node_16 -->
<g id="node11" class="node"><title>node_16</title>
<polygon fill="none" stroke="black" points="188,-144 132,-144 132,-108 188,-108 188,-144"/>
<text text-anchor="middle" x="160" y="-123.5" font-family="Helvetica,sans-Serif" font-size="10.00">gtk_main</text>
</g>
<!-- node_1&#45;&gt;node_16 -->
<g id="edge10" class="edge"><title>node_1&#45;&gt;node_16</title>
<path fill="none" stroke="black" d="M30.4795,-294.477C35.6119,-260.623 50.4351,-192.862 90,-153 98.691,-144.244 110.554,-138.259 121.993,-134.198"/>
<polygon fill="black" stroke="black" points="123.354,-137.439 131.846,-131.103 121.257,-130.761 123.354,-137.439"/>
</g>
<!-- node_17 -->
<g id="node12" class="node"><title>node_17</title>
<polygon fill="none" stroke="black" points="208,-90 112,-90 112,-54 208,-54 208,-90"/>
<text text-anchor="middle" x="160" y="-69.5" font-family="Helvetica,sans-Serif" font-size="10.00">cvReleaseCapture</text>
</g>
<!-- node_1&#45;&gt;node_17 -->
<g id="edge11" class="edge"><title>node_1&#45;&gt;node_17</title>
<path fill="none" stroke="black" d="M28.1362,-294.283C29.5227,-252.117 38.514,-155.538 90,-99 93.7351,-94.8984 98.1699,-91.4125 102.963,-88.4512"/>
<polygon fill="black" stroke="black" points="104.736,-91.4718 111.902,-83.6679 101.434,-85.2997 104.736,-91.4718"/>
</g>
<!-- node_18 -->
<g id="node13" class="node"><title>node_18</title>
<polygon fill="none" stroke="black" points="204.5,-36 115.5,-36 115.5,-0 204.5,-0 204.5,-36"/>
<text text-anchor="middle" x="160" y="-15.5" font-family="Helvetica,sans-Serif" font-size="10.00">cvReleaseImage</text>
</g>
<!-- node_1&#45;&gt;node_18 -->
<g id="edge12" class="edge"><title>node_1&#45;&gt;node_18</title>
<path fill="none" stroke="black" d="M30.229,-294.484C36.7202,-238.189 57.2507,-82.9659 90,-45 94.4597,-39.8299 100.036,-35.6431 106.075,-32.2539"/>
<polygon fill="black" stroke="black" points="107.708,-35.3521 115.176,-27.8377 104.652,-29.0543 107.708,-35.3521"/>
</g>
</g>
</svg>
