<?xml version="1.0" encoding="UTF-8" standalone="no"?>
<!DOCTYPE svg PUBLIC "-//W3C//DTD SVG 1.1//EN"
 "http://www.w3.org/Graphics/SVG/1.1/DTD/svg11.dtd">
<!-- Generated by graphviz version 2.38.0 (20140413.2041)
 -->
<!-- Title: sarien Pages: 1 -->
<svg width="346pt" height="658pt"
 viewBox="0.00 0.00 346.00 658.00" xmlns="http://www.w3.org/2000/svg" xmlns:xlink="http://www.w3.org/1999/xlink">
<g id="graph0" class="graph" transform="scale(1 1) rotate(0) translate(4 654)">
<title>sarien</title>
<polygon fill="white" stroke="none" points="-4,4 -4,-654 342,-654 342,4 -4,4"/>
<!-- node_1 -->
<g id="node1" class="node"><title>node_1</title>
<polygon fill="none" stroke="black" points="128,-41 27,-41 27,-0 128,-0 128,-41"/>
<text text-anchor="middle" x="77.5" y="-29" font-family="Helvetica,sans-Serif" font-size="10.00">on_button1_clicked</text>
<text text-anchor="middle" x="77.5" y="-18" font-family="Helvetica,sans-Serif" font-size="10.00"> void ()</text>
<text text-anchor="middle" x="77.5" y="-7" font-family="Helvetica,sans-Serif" font-size="10.00">callbacks.c</text>
</g>
<!-- node_3 -->
<g id="node2" class="node"><title>node_3</title>
<polygon fill="none" stroke="black" points="303,-38.5 226,-38.5 226,-2.5 303,-2.5 303,-38.5"/>
<text text-anchor="middle" x="264.5" y="-18" font-family="Helvetica,sans-Serif" font-size="10.00">gtk_main_quit</text>
</g>
<!-- node_1&#45;&gt;node_3 -->
<g id="edge1" class="edge"><title>node_1&#45;&gt;node_3</title>
<path fill="none" stroke="black" d="M128.077,-20.5C155.194,-20.5 188.636,-20.5 215.503,-20.5"/>
<polygon fill="black" stroke="black" points="215.824,-24.0001 225.824,-20.5 215.824,-17.0001 215.824,-24.0001"/>
</g>
<!-- node_4 -->
<g id="node3" class="node"><title>node_4</title>
<polygon fill="none" stroke="black" points="141.5,-176 13.5,-176 13.5,-135 141.5,-135 141.5,-176"/>
<text text-anchor="middle" x="77.5" y="-164" font-family="Helvetica,sans-Serif" font-size="10.00">on_checkbutton7_toggled</text>
<text text-anchor="middle" x="77.5" y="-153" font-family="Helvetica,sans-Serif" font-size="10.00"> gboolean ()</text>
<text text-anchor="middle" x="77.5" y="-142" font-family="Helvetica,sans-Serif" font-size="10.00">callbacks.c</text>
</g>
<!-- node_5 -->
<g id="node4" class="node"><title>node_5</title>
<polygon fill="none" stroke="black" points="336.5,-254.5 192.5,-254.5 192.5,-218.5 336.5,-218.5 336.5,-254.5"/>
<text text-anchor="middle" x="264.5" y="-234" font-family="Helvetica,sans-Serif" font-size="10.00">gtk_toggle_button_get_active</text>
</g>
<!-- node_4&#45;&gt;node_5 -->
<g id="edge2" class="edge"><title>node_4&#45;&gt;node_5</title>
<path fill="none" stroke="black" d="M118.971,-176.026C140.205,-186.514 166.776,-199.201 191,-209.5 195.145,-211.262 199.447,-213.026 203.796,-214.761"/>
<polygon fill="black" stroke="black" points="202.756,-218.112 213.344,-218.5 205.309,-211.594 202.756,-218.112"/>
</g>
<!-- node_7 -->
<g id="node5" class="node"><title>node_7</title>
<polygon fill="none" stroke="black" points="321.5,-200.5 207.5,-200.5 207.5,-164.5 321.5,-164.5 321.5,-200.5"/>
<text text-anchor="middle" x="264.5" y="-180" font-family="Helvetica,sans-Serif" font-size="10.00">gtk_builder_get_object</text>
</g>
<!-- node_4&#45;&gt;node_7 -->
<g id="edge3" class="edge"><title>node_4&#45;&gt;node_7</title>
<path fill="none" stroke="black" d="M141.649,-164.716C159.666,-167.346 179.34,-170.217 197.522,-172.871"/>
<polygon fill="black" stroke="black" points="197.048,-176.339 207.449,-174.32 198.059,-169.412 197.048,-176.339"/>
</g>
<!-- node_8 -->
<g id="node6" class="node"><title>node_8</title>
<polygon fill="none" stroke="black" points="307.5,-146.5 221.5,-146.5 221.5,-110.5 307.5,-110.5 307.5,-146.5"/>
<text text-anchor="middle" x="264.5" y="-126" font-family="Helvetica,sans-Serif" font-size="10.00">gtk_widget_hide</text>
</g>
<!-- node_4&#45;&gt;node_8 -->
<g id="edge4" class="edge"><title>node_4&#45;&gt;node_8</title>
<path fill="none" stroke="black" d="M141.649,-146.284C164.33,-142.973 189.638,-139.28 211.287,-136.12"/>
<polygon fill="black" stroke="black" points="211.882,-139.571 221.272,-134.663 210.871,-132.644 211.882,-139.571"/>
</g>
<!-- node_9 -->
<g id="node7" class="node"><title>node_9</title>
<polygon fill="none" stroke="black" points="310,-92.5 219,-92.5 219,-56.5 310,-56.5 310,-92.5"/>
<text text-anchor="middle" x="264.5" y="-72" font-family="Helvetica,sans-Serif" font-size="10.00">gtk_widget_show</text>
</g>
<!-- node_4&#45;&gt;node_9 -->
<g id="edge5" class="edge"><title>node_4&#45;&gt;node_9</title>
<path fill="none" stroke="black" d="M118.971,-134.974C140.205,-124.486 166.776,-111.799 191,-101.5 196.84,-99.0169 202.995,-96.5306 209.148,-94.1269"/>
<polygon fill="black" stroke="black" points="210.692,-97.2833 218.771,-90.43 208.181,-90.7489 210.692,-97.2833"/>
</g>
<!-- node_10 -->
<g id="node8" class="node"><title>node_10</title>
<polygon fill="none" stroke="black" points="155,-365 0,-365 0,-324 155,-324 155,-365"/>
<text text-anchor="middle" x="77.5" y="-353" font-family="Helvetica,sans-Serif" font-size="10.00">on_drawingarea1_expose_event</text>
<text text-anchor="middle" x="77.5" y="-342" font-family="Helvetica,sans-Serif" font-size="10.00"> gboolean ()</text>
<text text-anchor="middle" x="77.5" y="-331" font-family="Helvetica,sans-Serif" font-size="10.00">callbacks.c</text>
</g>
<!-- node_11 -->
<g id="node9" class="node"><title>node_11</title>
<polygon fill="none" stroke="black" points="338,-416.5 191,-416.5 191,-380.5 338,-380.5 338,-416.5"/>
<text text-anchor="middle" x="264.5" y="-396" font-family="Helvetica,sans-Serif" font-size="10.00">pari_PerformImageAcquisition</text>
</g>
<!-- node_10&#45;&gt;node_11 -->
<g id="edge6" class="edge"><title>node_10&#45;&gt;node_11</title>
<path fill="none" stroke="black" d="M148.968,-365.069C163.072,-369.186 177.902,-373.515 192.039,-377.641"/>
<polygon fill="black" stroke="black" points="191.119,-381.018 201.699,-380.461 193.08,-374.299 191.119,-381.018"/>
</g>
<!-- node_12 -->
<g id="node10" class="node"><title>node_12</title>
<polygon fill="none" stroke="black" points="335,-362.5 194,-362.5 194,-326.5 335,-326.5 335,-362.5"/>
<text text-anchor="middle" x="264.5" y="-342" font-family="Helvetica,sans-Serif" font-size="10.00">pari_ProcessUserOperations</text>
</g>
<!-- node_10&#45;&gt;node_12 -->
<g id="edge7" class="edge"><title>node_10&#45;&gt;node_12</title>
<path fill="none" stroke="black" d="M155.082,-344.5C164.499,-344.5 174.143,-344.5 183.607,-344.5"/>
<polygon fill="black" stroke="black" points="183.788,-348 193.788,-344.5 183.787,-341 183.788,-348"/>
</g>
<!-- node_13 -->
<g id="node11" class="node"><title>node_13</title>
<polygon fill="none" stroke="black" points="327.5,-308.5 201.5,-308.5 201.5,-272.5 327.5,-272.5 327.5,-308.5"/>
<text text-anchor="middle" x="264.5" y="-288" font-family="Helvetica,sans-Serif" font-size="10.00">pari_RefreshDrawingArea</text>
</g>
<!-- node_10&#45;&gt;node_13 -->
<g id="edge8" class="edge"><title>node_10&#45;&gt;node_13</title>
<path fill="none" stroke="black" d="M148.968,-323.931C163.072,-319.814 177.902,-315.485 192.039,-311.359"/>
<polygon fill="black" stroke="black" points="193.08,-314.701 201.699,-308.539 191.119,-307.982 193.08,-314.701"/>
</g>
<!-- node_14 -->
<g id="node12" class="node"><title>node_14</title>
<polygon fill="none" stroke="black" points="134,-473 21,-473 21,-432 134,-432 134,-473"/>
<text text-anchor="middle" x="77.5" y="-461" font-family="Helvetica,sans-Serif" font-size="10.00">pari_InterceptCTRL_C</text>
<text text-anchor="middle" x="77.5" y="-450" font-family="Helvetica,sans-Serif" font-size="10.00"> void ()</text>
<text text-anchor="middle" x="77.5" y="-439" font-family="Helvetica,sans-Serif" font-size="10.00">callbacks.c</text>
</g>
<!-- node_16 -->
<g id="node13" class="node"><title>node_16</title>
<polygon fill="none" stroke="black" points="303,-470.5 226,-470.5 226,-434.5 303,-434.5 303,-470.5"/>
<text text-anchor="middle" x="264.5" y="-450" font-family="Helvetica,sans-Serif" font-size="10.00">gtk_main_quit</text>
</g>
<!-- node_14&#45;&gt;node_16 -->
<g id="edge9" class="edge"><title>node_14&#45;&gt;node_16</title>
<path fill="none" stroke="black" d="M134.006,-452.5C159.989,-452.5 190.634,-452.5 215.588,-452.5"/>
<polygon fill="black" stroke="black" points="215.904,-456 225.904,-452.5 215.904,-449 215.904,-456"/>
</g>
<!-- node_17 -->
<g id="node14" class="node"><title>node_17</title>
<polygon fill="none" stroke="black" points="138,-532 17,-532 17,-491 138,-491 138,-532"/>
<text text-anchor="middle" x="77.5" y="-520" font-family="Helvetica,sans-Serif" font-size="10.00">pari_UpdateImageAreas</text>
<text text-anchor="middle" x="77.5" y="-509" font-family="Helvetica,sans-Serif" font-size="10.00"> gboolean ()</text>
<text text-anchor="middle" x="77.5" y="-498" font-family="Helvetica,sans-Serif" font-size="10.00">callbacks.c</text>
</g>
<!-- node_19 -->
<g id="node15" class="node"><title>node_19</title>
<polygon fill="none" stroke="black" points="321.5,-581.5 207.5,-581.5 207.5,-545.5 321.5,-545.5 321.5,-581.5"/>
<text text-anchor="middle" x="264.5" y="-561" font-family="Helvetica,sans-Serif" font-size="10.00">gtk_builder_get_object</text>
</g>
<!-- node_17&#45;&gt;node_19 -->
<g id="edge10" class="edge"><title>node_17&#45;&gt;node_19</title>
<path fill="none" stroke="black" d="M138.053,-528.239C157.029,-533.573 178.133,-539.505 197.535,-544.959"/>
<polygon fill="black" stroke="black" points="196.631,-548.34 207.205,-547.677 198.525,-541.601 196.631,-548.34"/>
</g>
<!-- node_20 -->
<g id="node16" class="node"><title>node_20</title>
<polygon fill="none" stroke="black" points="324.5,-527.5 204.5,-527.5 204.5,-491.5 324.5,-491.5 324.5,-527.5"/>
<text text-anchor="middle" x="264.5" y="-507" font-family="Helvetica,sans-Serif" font-size="10.00">gtk_widget_queue_draw</text>
</g>
<!-- node_17&#45;&gt;node_20 -->
<g id="edge11" class="edge"><title>node_17&#45;&gt;node_20</title>
<path fill="none" stroke="black" d="M138.053,-510.856C155.967,-510.663 175.777,-510.448 194.262,-510.249"/>
<polygon fill="black" stroke="black" points="194.413,-513.747 204.375,-510.139 194.337,-506.748 194.413,-513.747"/>
</g>
<!-- node_21 -->
<g id="node17" class="node"><title>node_21</title>
<polygon fill="none" stroke="black" points="124,-591 31,-591 31,-550 124,-550 124,-591"/>
<text text-anchor="middle" x="77.5" y="-579" font-family="Helvetica,sans-Serif" font-size="10.00">pari_delete_event</text>
<text text-anchor="middle" x="77.5" y="-568" font-family="Helvetica,sans-Serif" font-size="10.00"> gboolean ()</text>
<text text-anchor="middle" x="77.5" y="-557" font-family="Helvetica,sans-Serif" font-size="10.00">callbacks.c</text>
</g>
<!-- node_23 -->
<g id="node18" class="node"><title>node_23</title>
<polygon fill="none" stroke="black" points="112.5,-650 42.5,-650 42.5,-609 112.5,-609 112.5,-650"/>
<text text-anchor="middle" x="77.5" y="-638" font-family="Helvetica,sans-Serif" font-size="10.00">pari_destroy</text>
<text text-anchor="middle" x="77.5" y="-627" font-family="Helvetica,sans-Serif" font-size="10.00"> void ()</text>
<text text-anchor="middle" x="77.5" y="-616" font-family="Helvetica,sans-Serif" font-size="10.00">callbacks.c</text>
</g>
<!-- node_25 -->
<g id="node19" class="node"><title>node_25</title>
<polygon fill="none" stroke="black" points="303,-647.5 226,-647.5 226,-611.5 303,-611.5 303,-647.5"/>
<text text-anchor="middle" x="264.5" y="-627" font-family="Helvetica,sans-Serif" font-size="10.00">gtk_main_quit</text>
</g>
<!-- node_23&#45;&gt;node_25 -->
<g id="edge12" class="edge"><title>node_23&#45;&gt;node_25</title>
<path fill="none" stroke="black" d="M112.864,-629.5C141.81,-629.5 183.531,-629.5 215.728,-629.5"/>
<polygon fill="black" stroke="black" points="215.819,-633 225.819,-629.5 215.819,-626 215.819,-633"/>
</g>
</g>
</svg>
